<svg width="141" height="72" viewBox="0 0 141 72" fill="none" xmlns="http://www.w3.org/2000/svg">
<path d="M0.222656 5.47858V27.9114C0.222656 30.9358 2.65635 33.39 5.65562 33.39H12.3569C15.3561 33.39 17.7898 30.9358 17.7898 27.9114V5.47858C17.7898 2.45413 15.3561 0 12.3569 0H5.65562C2.65635 0 0.222656 2.45413 0.222656 5.47858ZM10.1631 27.8422H7.98649C6.99244 27.8422 6.16978 27.03 6.16978 26.0103V7.44879C6.16978 6.4464 6.9753 5.61684 7.98649 5.61684H10.1631C11.1571 5.61684 11.9798 6.42912 11.9798 7.44879V26.0103C11.9627 27.03 11.1571 27.8422 10.1631 27.8422Z" fill="#008B74"/>
<path d="M44.7148 43.1201V65.5528C44.7148 68.5773 47.1485 71.0314 50.1478 71.0314H56.849C59.8483 71.0314 62.282 68.5773 62.282 65.5528V43.1201C62.282 40.0956 59.8483 37.6415 56.849 37.6415H50.1478C47.1485 37.6415 44.7148 40.0956 44.7148 43.1201ZM54.6553 65.4837H52.4787C51.4846 65.4837 50.662 64.6714 50.662 63.6518V45.0903C50.662 44.0879 51.4675 43.2583 52.4787 43.2583H54.6553C55.6493 43.2583 56.472 44.0706 56.472 45.0903V63.6518C56.4549 64.6714 55.6493 65.4837 54.6553 65.4837Z" fill="#008B74"/>
<path d="M66.9609 43.1201V65.5528C66.9609 68.5773 69.3946 71.0314 72.3939 71.0314H79.0951C82.0944 71.0314 84.5281 68.5773 84.5281 65.5528V43.1201C84.5281 40.0956 82.0944 37.6415 79.0951 37.6415H72.3939C69.3946 37.6415 66.9609 40.0956 66.9609 43.1201ZM76.9014 65.4837H74.7248C73.7307 65.4837 72.9081 64.6714 72.9081 63.6518V45.0903C72.9081 44.0879 73.7136 43.2583 74.7248 43.2583H76.9014C77.8954 43.2583 78.7181 44.0706 78.7181 45.0903V63.6518C78.7009 64.6714 77.8954 65.4837 76.9014 65.4837Z" fill="#008B74"/>
<path d="M22.4688 5.47858V27.9114C22.4688 30.9358 24.9024 33.39 27.9017 33.39H34.6029C37.6022 33.39 40.0359 30.9358 40.0359 27.9114V5.47858C40.0359 2.45413 37.6022 0 34.6029 0H27.9017C24.9024 0 22.4688 2.45413 22.4688 5.47858ZM32.4092 27.8422H30.2326C29.2385 27.8422 28.4159 27.03 28.4159 26.0103V7.44879C28.4159 6.4464 29.2214 5.61684 30.2326 5.61684H32.4092C33.4032 5.61684 34.2259 6.42912 34.2259 7.44879V26.0103C34.2087 27.03 33.4032 27.8422 32.4092 27.8422Z" fill="#008B74"/>
<path d="M62.282 8.38206V5.47858C62.282 2.45413 59.8483 0 56.849 0H50.1478C47.1485 0 44.7148 2.45413 44.7148 5.47858V11.3374C44.7148 14.3618 47.1485 16.816 50.1478 16.816H54.6553C55.6493 16.816 56.472 17.6282 56.472 18.6479V26.0276C56.472 27.03 55.6665 27.8595 54.6553 27.8595H52.4787C51.4846 27.8595 50.662 27.0473 50.662 26.0276V22.1217H44.7148V27.9287C44.7148 30.9531 47.1485 33.4072 50.1478 33.4072H56.849C59.8483 33.4072 62.282 30.9531 62.282 27.9287V16.7123C62.282 13.6878 59.8483 11.2337 56.849 11.2337H52.4615C51.4675 11.2337 50.6448 10.4214 50.6448 9.40173V7.44879C50.6448 6.4464 51.4504 5.61684 52.4615 5.61684H54.6381C55.6322 5.61684 56.4548 6.42912 56.4548 7.44879V8.39934H62.282V8.38206Z" fill="#008B74"/>
<path d="M78.581 22.1044V26.0103C78.581 27.0127 77.7755 27.8422 76.7643 27.8422H74.5877C73.5936 27.8422 72.771 27.03 72.771 26.0103V16.816H84.4938V11.2164H72.7881V0.120972H66.9609V27.9114C66.9609 30.9358 69.3946 33.3899 72.3939 33.3899H79.0951C82.0944 33.3899 84.5281 30.9358 84.5281 27.9114V22.1044H78.581Z" fill="#008B74"/>
<path d="M100.912 22.1044V26.0103C100.912 27.0127 100.107 27.8422 99.0956 27.8422H96.9189C95.9249 27.8422 95.1023 27.03 95.1023 26.0103V16.816H101.341C104.34 16.816 106.774 14.3618 106.774 11.3374V5.47858C106.774 2.45413 104.34 0 101.341 0H94.6395C91.6402 0 89.2065 2.45413 89.2065 5.47858V27.9114C89.2065 30.9358 91.6402 33.39 94.6395 33.39H101.341C104.34 33.39 106.774 30.9358 106.774 27.9114V22.1044H100.912ZM95.1023 7.44879C95.1023 6.4464 95.9078 5.61684 96.9189 5.61684H99.0956C100.09 5.61684 100.912 6.42912 100.912 7.44879V9.40173C100.912 10.4041 100.107 11.2337 99.0956 11.2337H95.1023V7.44879Z" fill="#008B74"/>
<path d="M123.073 11.2164V7.44879C123.073 6.4464 122.267 5.61683 121.256 5.61683H119.079C118.085 5.61683 117.263 6.42912 117.263 7.44879V33.3899H111.436V5.59955C111.436 2.5751 113.869 0.120972 116.869 0.120972H123.57C126.569 0.120972 129.003 2.5751 129.003 5.59955V11.2164H123.073Z" fill="#008B74"/>
<path d="M123.073 59.7459V63.6518C123.073 64.6542 122.267 65.4837 121.256 65.4837H119.079C118.085 65.4837 117.263 64.6714 117.263 63.6518V54.4574H128.968V48.8579H117.263V37.7625H111.436V65.5528C111.436 68.5773 113.869 71.0314 116.869 71.0314H123.57C126.569 71.0314 129.003 68.5773 129.003 65.5528V59.7459H123.073Z" fill="#008B74"/>
<path d="M100.827 48.8752V45.1076C100.827 44.1052 100.021 43.2756 99.0099 43.2756H96.8333C95.8393 43.2756 95.0166 44.0879 95.0166 45.1076V71.0314H89.1895V43.241C89.1895 40.2166 91.6231 37.7625 94.6224 37.7625H101.324C104.323 37.7625 106.757 40.2166 106.757 43.241V48.8579H100.827V48.8752Z" fill="#008B74"/>
<path d="M34.6029 37.6415H27.9017C24.9024 37.6415 22.4688 40.0956 22.4688 43.1201V71.0314H28.4159V59.7459H34.6029C37.6022 59.7459 40.0359 57.2918 40.0359 54.2673V43.1201C40.0359 40.0956 37.6022 37.6415 34.6029 37.6415ZM34.2088 52.3317C34.2088 53.3341 33.4032 54.1636 32.392 54.1636H28.3987V45.1076C28.3987 44.1052 29.2043 43.2756 30.2154 43.2756H32.392C33.3861 43.2756 34.2088 44.0879 34.2088 45.1076V52.3317Z" fill="#008B74"/>
<path d="M137.88 71.6536C139.594 71.6536 141 70.2537 141 68.5082C141 66.7799 139.611 65.3627 137.88 65.3627C136.167 65.3627 134.761 66.7626 134.761 68.5082C134.778 70.2537 136.167 71.6536 137.88 71.6536Z" fill="#B6AC41"/>
</svg>
